<svg xmlns="http://www.w3.org/2000/svg" xmlns:xlink="http://www.w3.org/1999/xlink" width="50" height="50" viewBox="0 0 50 50">
  <defs>
    <filter id="Ellipse_34" x="0" y="0" width="50" height="50" filterUnits="userSpaceOnUse">
      <feOffset dy="3" input="SourceAlpha"/>
      <feGaussianBlur stdDeviation="3" result="blur"/>
      <feFlood flood-opacity="0.161"/>
      <feComposite operator="in" in2="blur"/>
      <feComposite in="SourceGraphic"/>
    </filter>
  </defs>
  <g id="Add_btn" transform="translate(-321 -548)">
    <g transform="matrix(1, 0, 0, 1, 321, 548)" filter="url(#Ellipse_34)">
      <g id="Ellipse_34-2" data-name="Ellipse 34" transform="translate(9 6)" fill="#5bb33e" stroke="#fff" stroke-width="1">
        <circle cx="16" cy="16" r="16" stroke="none"/>
        <circle cx="16" cy="16" r="15.5" fill="none"/>
      </g>
    </g>
    <path id="Icon_metro-cross" data-name="Icon metro-cross" d="M9.51,7.711h0L6.6,4.8,9.51,1.887h0a.3.3,0,0,0,0-.424L8.135.088a.3.3,0,0,0-.424,0h0L4.8,3,1.887.088h0a.3.3,0,0,0-.424,0L.088,1.463a.3.3,0,0,0,0,.424h0L3,4.8.088,7.711h0a.3.3,0,0,0,0,.424L1.463,9.51a.3.3,0,0,0,.424,0h0L4.8,6.6,7.711,9.51h0a.3.3,0,0,0,.424,0L9.51,8.135a.3.3,0,0,0,0-.424Z" transform="translate(339.143 569.93) rotate(-45)" fill="#fff"/>
  </g>
</svg>
