<svg id="service_shampoo" xmlns="http://www.w3.org/2000/svg" xmlns:xlink="http://www.w3.org/1999/xlink" width="23.994" height="30.404" viewBox="0 0 23.994 30.404">
  <defs>
    <clipPath id="clip-path">
      <rect id="Rectangle_1949" data-name="Rectangle 1949" width="23.994" height="30.404" fill="none"/>
    </clipPath>
  </defs>
  <g id="Group_3971" data-name="Group 3971" clip-path="url(#clip-path)">
    <path id="Path_2873" data-name="Path 2873" d="M52.674,44.855H46.119a2.07,2.07,0,0,0-2.071,2.071v.325a1.405,1.405,0,0,0-2.121,1.21v6.332A1.829,1.829,0,0,0,44,56.6l4.852-.007h5.811a1.115,1.115,0,0,0,1.115-1.115V47.961a3.105,3.105,0,0,0-3.1-3.106" transform="translate(-36.856 -39.43)" fill="#87828e"/>
    <path id="Path_2874" data-name="Path 2874" d="M122.146,47.961v7.521A1.115,1.115,0,0,1,121.03,56.6h-.5V47.961a3.106,3.106,0,0,0-3.106-3.106h1.616a3.106,3.106,0,0,1,3.106,3.106" transform="translate(-103.222 -39.43)" fill="#796e84"/>
    <path id="Path_2875" data-name="Path 2875" d="M47.728,44.855a2.07,2.07,0,0,0-2.07,2.07v.325a1.406,1.406,0,0,0-2.122,1.21v6.332A1.828,1.828,0,0,0,45.61,56.6H44a1.828,1.828,0,0,1-2.075-1.811V48.46a1.406,1.406,0,0,1,2.122-1.21v-.325a2.07,2.07,0,0,1,2.07-2.07Z" transform="translate(-36.851 -39.43)" fill="#a4a4a5"/>
    <path id="Path_2876" data-name="Path 2876" d="M52.081,189.706v3.526A1.079,1.079,0,0,1,51,194.311H38.127a1.122,1.122,0,0,1-1.078-1.127V189.7a2.694,2.694,0,0,1,2.7-2.695l1.824,0h7.817a2.694,2.694,0,0,1,2.695,2.693" transform="translate(-32.568 -164.391)" fill="#f9d335"/>
    <path id="Path_2877" data-name="Path 2877" d="M38.852,193.184V189.7a2.693,2.693,0,0,1,2.6-2.692l-1.712,0a2.694,2.694,0,0,0-2.7,2.695v3.48a1.122,1.122,0,0,0,1.078,1.127h1.8a1.122,1.122,0,0,1-1.078-1.127" transform="translate(-32.567 -164.391)" fill="#f9e27d"/>
    <path id="Path_2878" data-name="Path 2878" d="M125.938,187.031h-1.8a2.694,2.694,0,0,1,2.695,2.693v3.526a1.086,1.086,0,0,1-.953,1.079h1.678a1.079,1.079,0,0,0,1.079-1.079v-3.526a2.694,2.694,0,0,0-2.695-2.693" transform="translate(-109.12 -164.41)" fill="#f2c300"/>
    <path id="Path_2879" data-name="Path 2879" d="M87.331,187.013H85.415c.031,0,.061,0,.093,0l1.824,0" transform="translate(-75.084 -164.392)" fill="#ffcaa6"/>
    <path id="Path_2880" data-name="Path 2880" d="M86.335,154.406v4.113a1.555,1.555,0,0,0,3.109-.036v-4.077Z" transform="translate(-75.893 -135.731)" fill="#ffbb98"/>
    <path id="Path_2881" data-name="Path 2881" d="M64.169,96.375h0a4.833,4.833,0,0,1-4.819-4.819V87.674A1.077,1.077,0,0,1,60.427,86.6h2.4a1.035,1.035,0,0,1,.82.4c.287.372.512.761,1.1.761H67.91a1.077,1.077,0,0,1,1.077,1.077v2.719a4.833,4.833,0,0,1-4.818,4.819" transform="translate(-52.172 -76.123)" fill="#ffbb98"/>
    <path id="Path_2882" data-name="Path 2882" d="M98.141,97.3v2.718a4.833,4.833,0,0,1-4.819,4.819,4.758,4.758,0,0,1-.807-.069,4.835,4.835,0,0,0,4.011-4.75v-2.76a1.035,1.035,0,0,0-1.036-1.035h1.574A1.077,1.077,0,0,1,98.141,97.3" transform="translate(-81.325 -84.584)" fill="#ffaa80"/>
    <path id="Path_2883" data-name="Path 2883" d="M64.976,96.308a4.76,4.76,0,0,1-.807.069A4.832,4.832,0,0,1,59.35,91.56V87.677A1.077,1.077,0,0,1,60.427,86.6H62a1.035,1.035,0,0,0-1.036,1.035V91.56a4.835,4.835,0,0,0,4.011,4.749" transform="translate(-52.172 -76.126)" fill="#ffcaa6"/>
    <path id="Path_2884" data-name="Path 2884" d="M43.3,29.314a1.812,1.812,0,1,0-3.02-1.354,1.812,1.812,0,0,0-1.877.273,2.393,2.393,0,0,0-4.525.053,1.808,1.808,0,0,0-1.935-.326,1.813,1.813,0,1,0-3.02,1.354,2.614,2.614,0,1,0,3.736,2.361c0-.08,0-.16-.011-.238h.011a1.812,1.812,0,0,0,1.59-.942,2.392,2.392,0,0,0,3.759.057,1.81,1.81,0,0,0,1.555.884h.011c-.007.078-.011.158-.011.238A2.614,2.614,0,1,0,43.3,29.314" transform="translate(-24.112 -22.989)" fill="#ffe2e2"/>
    <path id="Path_2885" data-name="Path 2885" d="M30.858,34.158a2.614,2.614,0,0,1-1.939-4.844,1.811,1.811,0,0,1,2.024-2.967,1.81,1.81,0,0,0-.392,2.967,2.614,2.614,0,0,0,.307,4.844" transform="translate(-24.11 -22.989)" fill="#ffefee"/>
    <path id="Path_2886" data-name="Path 2886" d="M145.41,31.675a2.615,2.615,0,0,1-3.431,2.483,2.614,2.614,0,0,0,.307-4.844,1.81,1.81,0,0,0-.391-2.967,1.787,1.787,0,0,1,.815-.195,1.811,1.811,0,0,1,1.208,3.162,2.615,2.615,0,0,1,1.492,2.361" transform="translate(-124.733 -22.989)" fill="#ffcfcf"/>
    <path id="Path_2887" data-name="Path 2887" d="M6.682,5.341A1.339,1.339,0,1,1,5.342,4,1.34,1.34,0,0,1,6.682,5.341" transform="translate(-3.519 -3.518)" fill="#ffe2e2"/>
    <path id="Path_2888" data-name="Path 2888" d="M174.907,5.341A1.339,1.339,0,1,1,173.567,4a1.34,1.34,0,0,1,1.339,1.339" transform="translate(-151.397 -3.518)" fill="#ffe2e2"/>
    <path id="Path_2889" data-name="Path 2889" d="M73.6,111.272a.484.484,0,0,0-.484.484.4.4,0,0,1-.792,0,.484.484,0,0,0-.484-.484c-.908,0-.484,1.847.88,1.847s1.79-1.847.88-1.847" transform="translate(-62.726 -97.814)" fill="#5f266d"/>
    <path id="Path_2890" data-name="Path 2890" d="M106.762,111.272a.484.484,0,0,0-.484.484.4.4,0,0,1-.792,0,.484.484,0,0,0-.484-.484c-.908,0-.484,1.847.88,1.847s1.79-1.847.88-1.847" transform="translate(-91.88 -97.814)" fill="#5f266d"/>
    <path id="Path_2891" data-name="Path 2891" d="M87.316,132.43a.484.484,0,0,0-.484.484.849.849,0,0,1-1.7,0,.484.484,0,0,0-.484-.484c-1,0-.4,2.3,1.333,2.3a1.817,1.817,0,0,0,1.4-.66h0c.481-.584.642-1.64-.069-1.64" transform="translate(-73.986 -116.413)" fill="#5f266d"/>
    <path id="Path_2892" data-name="Path 2892" d="M122.624,223.5h1.33a.484.484,0,0,0,0-.968h-1.33a.484.484,0,1,0,0,.968" transform="translate(-107.367 -195.615)" fill="#5f266d"/>
    <path id="Path_2893" data-name="Path 2893" d="M104.538,222.53h-.425a.484.484,0,0,0,0,.968h.425a.484.484,0,1,0,0-.968" transform="translate(-91.096 -195.615)" fill="#5f266d"/>
    <path id="Path_2894" data-name="Path 2894" d="M40.511,25.676a2.3,2.3,0,1,0-4.151-1.843,2.322,2.322,0,0,0-1.275.189,2.879,2.879,0,0,0-4.927.029,2.3,2.3,0,0,0-1.333-.218,2.3,2.3,0,1,0-4.151,1.843,3.1,3.1,0,0,0,.509,5.272v3.886a2.309,2.309,0,0,0,2.6,2.3A5.329,5.329,0,0,0,30.554,39.8v1.811c-2.282,0-1.694,0-2.779,0h0a3.178,3.178,0,0,0-3.176,3.179c0,.219,0,3.341,0,3.479a1.61,1.61,0,0,0,1.559,1.611H39.03a1.565,1.565,0,0,0,1.563-1.563c0-.037,0-.492,0-3.526a3.181,3.181,0,0,0-3.179-3.177H34.632V39.8a5.368,5.368,0,0,0,2.776-2.675h1a1.6,1.6,0,0,0,1.6-1.6V30.948a3.1,3.1,0,0,0,.509-5.272m-14.36,9.158v-3.6a3.055,3.055,0,0,0,1.139-.071V34.9a5.292,5.292,0,0,0,.146,1.239,1.29,1.29,0,0,1-1.286-1.309m11.263,7.742a2.213,2.213,0,0,1,2.211,2.21v3.527a.6.6,0,0,1-.593.595H26.155a.642.642,0,0,1-.594-.643v-3.48a2.209,2.209,0,0,1,2.21-2.211h2.808a2.023,2.023,0,0,0,3.389,1.147,2.08,2.08,0,0,0,.634-1.145ZM31.521,40.1a5.358,5.358,0,0,0,2.143,0v2.125a1.086,1.086,0,0,1-1.844.77c-.383-.4-.3-.6-.3-2.9m4.133-2.132a4.334,4.334,0,0,1-7.4-3.061V31.022a.594.594,0,0,1,.593-.593c2.553,0,2.623-.071,2.841.214.029.036.056.073.082.109a1.668,1.668,0,0,0,1.4.841h3.164a.594.594,0,0,1,.593.593c0,2.671.28,4.227-1.274,5.78m-2.483-7.34c-.324,0-.42-.2-.712-.572a1.53,1.53,0,0,0-1.2-.591H29.336a3.038,3.038,0,0,0,.283-1.108,2.294,2.294,0,0,0,1.155-.631,2.877,2.877,0,0,0,3.677.034,2.317,2.317,0,0,0,1.116.6,3.1,3.1,0,0,0,1.444,2.426c-.427-.2-.42-.154-3.84-.154m5.864,4.9a.632.632,0,0,1-.631.631h-.657c.193-.8.149-1.1.149-3.971a1.56,1.56,0,0,0-.688-1.293,3.064,3.064,0,0,0,1.828.339ZM40,29.808a2.132,2.132,0,0,1-3.464-1.846.485.485,0,0,0-.5-.527,1.317,1.317,0,0,1-1.128-.648.484.484,0,0,0-.791-.057,1.909,1.909,0,0,1-3-.046.484.484,0,0,0-.808.06,1.328,1.328,0,0,1-1.17.691.485.485,0,0,0-.49.527,2.13,2.13,0,1,1-3.411-1.5c.344-.262.6-.254.647-.6.072-.5-.6-.515-.6-1.419a1.329,1.329,0,0,1,2.657,0,.483.483,0,0,0,.675.443,1.324,1.324,0,0,1,1.418.239.485.485,0,0,0,.785-.2,1.911,1.911,0,0,1,3.61-.042.485.485,0,0,0,.766.208,1.348,1.348,0,0,1,1.375-.2.483.483,0,0,0,.675-.443,1.328,1.328,0,1,1,2.213.993.483.483,0,0,0,.115.8A2.131,2.131,0,0,1,40,29.808" transform="translate(-20.596 -19.471)" fill="#5f266d"/>
    <path id="Path_2895" data-name="Path 2895" d="M3.647,1.824A1.823,1.823,0,1,0,1.824,3.647,1.826,1.826,0,0,0,3.647,1.824m-1.823.855a.856.856,0,1,1,.855-.855.857.857,0,0,1-.855.855" fill="#5f266d"/>
    <path id="Path_2896" data-name="Path 2896" d="M170.053,0a1.823,1.823,0,1,0,1.824,1.824A1.826,1.826,0,0,0,170.053,0m0,2.679a.856.856,0,1,1,.856-.855.856.856,0,0,1-.856.855" transform="translate(-147.883)" fill="#5f266d"/>
  </g>
</svg>
