<svg id="service_hairoil" xmlns="http://www.w3.org/2000/svg" xmlns:xlink="http://www.w3.org/1999/xlink" width="25.425" height="27.92" viewBox="0 0 25.425 27.92">
  <defs>
    <clipPath id="clip-path">
      <rect id="Rectangle_1939" data-name="Rectangle 1939" width="25.425" height="27.92" fill="none"/>
    </clipPath>
  </defs>
  <g id="Group_3956" data-name="Group 3956" clip-path="url(#clip-path)">
    <path id="Path_2757" data-name="Path 2757" d="M14.943,47.509a1.094,1.094,0,0,1-.639-1V43.85H6.617v2.657a1.1,1.1,0,0,1-.643,1A3.333,3.333,0,0,0,4,50.369c0,.063-.006.126-.006.19L4,65.067A1.231,1.231,0,0,0,5.235,66.3H15.8a1.118,1.118,0,0,0,1.118-1.118V50.559a3.338,3.338,0,0,0-1.98-3.05" transform="translate(-3.556 -38.998)" fill="#ffe2e2"/>
    <path id="Path_2758" data-name="Path 2758" d="M8.275,43.85v2.657a1.1,1.1,0,0,1-.643,1,3.381,3.381,0,0,0-1,.687,3.324,3.324,0,0,0-.97,2.171c-.006.063-.007.126-.007.19l.006,14.507A1.232,1.232,0,0,0,6.893,66.3H5.233A1.232,1.232,0,0,1,4,65.067L4,50.559c0-.064,0-.127.007-.19a3.324,3.324,0,0,1,.97-2.171,3.381,3.381,0,0,1,1-.687,1.1,1.1,0,0,0,.643-1V43.85Z" transform="translate(-3.554 -38.998)" fill="#ffefee"/>
    <path id="Path_2759" data-name="Path 2759" d="M86.405,50.559v14.62A1.118,1.118,0,0,1,85.287,66.3H83.514a1.231,1.231,0,0,0,1.232-1.231V50.559a3.338,3.338,0,0,0-1.98-3.05,1.094,1.094,0,0,1-.64-1V43.85h1.66v2.657a1.094,1.094,0,0,0,.64,1,3.338,3.338,0,0,1,1.98,3.05" transform="translate(-73.038 -38.998)" fill="#ffcfcf"/>
    <path id="Path_2760" data-name="Path 2760" d="M24.542,8.409H14.5a.483.483,0,0,1-.483-.483V4.482A.483.483,0,0,1,14.5,4H24.542a.483.483,0,0,1,.483.483V7.926a.483.483,0,0,1-.483.483" transform="translate(-12.469 -3.556)" fill="#87828e"/>
    <path id="Path_2761" data-name="Path 2761" d="M15.952,8.408H14.5a.483.483,0,0,1-.483-.483V4.482A.483.483,0,0,1,14.5,4h1.45a.483.483,0,0,0-.483.483V7.925a.483.483,0,0,0,.483.483" transform="translate(-12.468 -3.556)" fill="#a4a4a5"/>
    <path id="Path_2762" data-name="Path 2762" d="M97.933,4.482V7.925a.483.483,0,0,1-.483.483H96a.483.483,0,0,0,.483-.483V4.482A.483.483,0,0,0,96,4h1.45a.483.483,0,0,1,.483.483" transform="translate(-85.377 -3.556)" fill="#796e84"/>
    <path id="Path_2763" data-name="Path 2763" d="M36.929,95.184a3.416,3.416,0,0,1-2.577,5.382q-.087,0-.176,0a3.415,3.415,0,0,1-3.012-5.2L33.9,90.85Z" transform="translate(-27.272 -80.797)" fill="#f2c300"/>
    <path id="Path_2764" data-name="Path 2764" d="M34.982,100.477a3.32,3.32,0,0,1-.631.089c-.059,0-.116,0-.176,0a3.415,3.415,0,0,1-3.011-5.2L33.9,90.85l.89,1.273-1.963,3.247a3.406,3.406,0,0,0,2.158,5.108" transform="translate(-27.271 -80.797)" fill="#f9e27d"/>
    <path id="Path_2765" data-name="Path 2765" d="M115.216,130.833a6.878,6.878,0,1,1-6.878-6.878,6.878,6.878,0,0,1,6.878,6.878" transform="translate(-90.233 -110.238)" fill="#f9d335"/>
    <path id="Path_2766" data-name="Path 2766" d="M109.091,137.669a6.878,6.878,0,1,1,0-13.673,6.878,6.878,0,0,0,0,13.673" transform="translate(-90.233 -110.238)" fill="#f9e27d"/>
    <path id="Path_2767" data-name="Path 2767" d="M164.439,130.833a6.879,6.879,0,0,1-7.63,6.836,6.878,6.878,0,0,0,0-13.673,6.879,6.879,0,0,1,7.63,6.836" transform="translate(-139.457 -110.238)" fill="#f2c300"/>
    <path id="Path_2768" data-name="Path 2768" d="M119.787,164.615a3.21,3.21,0,0,1,.652-1.869,5.376,5.376,0,0,0,3.951,1.415H125.7l-.654-1.5a8.012,8.012,0,0,0,3.832,1.429v-1.01a2.67,2.67,0,0,0-.783-1.887,2.722,2.722,0,0,0-2.539-.744c.14-.888,1.563-1.914,1.563-1.914-4.292-.308-5.155,1.872-5.155,1.872l.224-1.872s-5.081,1.413-2.4,6.079" transform="translate(-105.838 -140.966)" fill="#b76c6c"/>
    <path id="Path_2769" data-name="Path 2769" d="M122.19,158.773l-.063.526a3.436,3.436,0,0,0-1.882,3.914,3.722,3.722,0,0,0-.457,1.639c-2.679-4.665,2.4-6.079,2.4-6.079" transform="translate(-105.838 -141.203)" fill="#c98585"/>
    <path id="Path_2770" data-name="Path 2770" d="M170.663,158.536s-1.407,1.015-1.56,1.9a2.691,2.691,0,0,0-1.135.015c.115-.726,1.158-1.632,1.534-1.937a10.574,10.574,0,0,1,1.161.023" transform="translate(-149.381 -140.966)" fill="#965959"/>
    <path id="Path_2771" data-name="Path 2771" d="M181.8,178.165v1.01a11.269,11.269,0,0,1-1.132-.226v-.785a2.724,2.724,0,0,0-2.155-2.64,2.724,2.724,0,0,1,2.5.753,2.671,2.671,0,0,1,.783,1.887" transform="translate(-158.761 -156.051)" fill="#965959"/>
    <path id="Path_2772" data-name="Path 2772" d="M27.881,221.7H26.664a.443.443,0,0,0,0,.885h1.217a.443.443,0,0,0,0-.885" transform="translate(-23.319 -197.166)" fill="#5f266d"/>
    <path id="Path_2773" data-name="Path 2773" d="M53.069,221.7h-.405a.443.443,0,0,0,0,.885h.405a.443.443,0,0,0,0-.885" transform="translate(-46.442 -197.166)" fill="#5f266d"/>
    <path id="Path_2774" data-name="Path 2774" d="M30.715,87.037a.442.442,0,0,0-.742.025l-2.733,4.52a3.887,3.887,0,1,0,6.506-.211Zm2.533,7.9a3,3,0,1,1-5.25-2.9L30.379,88.1l2.641,3.776a2.977,2.977,0,0,1,.228,3.062" transform="translate(-23.726 -77.237)" fill="#5f266d"/>
    <path id="Path_2775" data-name="Path 2775" d="M13.808,14.672V11.561a3.786,3.786,0,0,0-2.241-3.454.65.65,0,0,1-.377-.6V5.3h.882A.927.927,0,0,0,13,4.369V.926A.927.927,0,0,0,12.072,0H2.034a.927.927,0,0,0-.926.926V4.369a.927.927,0,0,0,.926.926h.584V7.509a.654.654,0,0,1-.382.6,3.779,3.779,0,0,0-2.23,3.228C0,11.484,0,10.542,0,26.069a1.675,1.675,0,0,0,1.673,1.673h10.57a1.561,1.561,0,0,0,1.528-1.248,7.318,7.318,0,1,0,.032-11.822M2.034,4.41a.041.041,0,0,1-.041-.041V.926A.041.041,0,0,1,2.034.885H3.371V1.979a.443.443,0,0,0,.885,0V.885H5.531V1.979a.443.443,0,0,0,.885,0V.885H7.69V1.979a.443.443,0,0,0,.885,0V.885H9.85V1.979a.443.443,0,1,0,.885,0V.885h1.337a.041.041,0,0,1,.041.041V4.369a.041.041,0,0,1-.041.041ZM12.923,26.182a.676.676,0,0,1-.675.675H1.678a.789.789,0,0,1-.788-.788C.884,10.506.881,11.5.89,11.4A2.893,2.893,0,0,1,2.6,8.918,1.541,1.541,0,0,0,3.5,7.509V5.3h6.8V7.509a1.535,1.535,0,0,0,.9,1.406,2.9,2.9,0,0,1,1.716,2.646v3.866a7.307,7.307,0,0,0,0,10.332Zm5.181.848a6.435,6.435,0,1,1,6.435-6.435A6.429,6.429,0,0,1,18.1,27.029" transform="translate(0.001)" fill="#5f266d"/>
    <path id="Path_2776" data-name="Path 2776" d="M125.764,159.523a3.16,3.16,0,0,0-3.038-3.138c.763-1.008,1.408-1.011,1.261-1.528a.443.443,0,0,0-.394-.32,6.751,6.751,0,0,0-4.58.975l.058-.481a.444.444,0,0,0-.559-.479,6.028,6.028,0,0,0-2.423,1.426c-1.5,1.528-1.3,3.457-.243,5.3a.442.442,0,0,0,.825-.2,3.639,3.639,0,0,1,.28-1.227c1.748,1.348,3.98,1.2,5.192,1.2a.443.443,0,0,0,.406-.62l-.113-.258a10.5,10.5,0,0,0,2.82.8.445.445,0,0,0,.354-.1c.2-.172.154-.289.154-1.346m-.885.485a7.342,7.342,0,0,1-3.1-1.239.443.443,0,0,0-.694.513l.384.879h-.626a4.97,4.97,0,0,1-3.623-1.259.443.443,0,0,0-.338-.156c-.366,0-.673.566-.805.9-.584-1.848.287-3.173,2.029-3.985l-.136,1.141a.443.443,0,0,0,.851.216c.007-.017.635-1.512,3.594-1.617-1.384,1.435-.761,2.054-.294,1.922a2.278,2.278,0,0,1,2.76,2.2Z" transform="translate(-102.28 -137.408)" fill="#5f266d"/>
  </g>
</svg>
