<svg id="service_haircut" xmlns="http://www.w3.org/2000/svg" xmlns:xlink="http://www.w3.org/1999/xlink" width="29.409" height="29.247" viewBox="0 0 29.409 29.247">
  <defs>
    <clipPath id="clip-path">
      <rect id="Rectangle_1937" data-name="Rectangle 1937" width="29.409" height="29.247" fill="none"/>
    </clipPath>
  </defs>
  <g id="Group_3951" data-name="Group 3951" clip-path="url(#clip-path)">
    <path id="Path_2722" data-name="Path 2722" d="M23.734,7.244v7.842a1.163,1.163,0,0,1-1.163,1.163H16.513v5.683H11.454a1.907,1.907,0,0,1-2.162-1.889V7.765A1.465,1.465,0,0,1,11.5,6.5V6.165a2.158,2.158,0,0,1,2.159-2.159H20.5a3.237,3.237,0,0,1,3.237,3.238" transform="translate(-8.211 -3.54)" fill="#87828e"/>
    <path id="Path_2723" data-name="Path 2723" d="M96.083,7.244v7.842a1.163,1.163,0,0,1-1.163,1.163H94.4v-9A3.238,3.238,0,0,0,91.16,4.006h1.685a3.238,3.238,0,0,1,3.238,3.238" transform="translate(-80.559 -3.54)" fill="#796e84"/>
    <path id="Path_2724" data-name="Path 2724" d="M15.34,4.005a2.158,2.158,0,0,0-2.158,2.158V6.5A1.466,1.466,0,0,0,10.97,7.764V20.042a1.906,1.906,0,0,0,2.163,1.888H11.449a1.906,1.906,0,0,1-2.163-1.888V7.764A1.466,1.466,0,0,1,11.5,6.5V6.163a2.158,2.158,0,0,1,2.158-2.158Z" transform="translate(-8.206 -3.539)" fill="#a4a4a5"/>
    <path id="Path_2725" data-name="Path 2725" d="M19.674,160.966v6.367a1.125,1.125,0,0,1-1.125,1.125l-13.423-.05A1.125,1.125,0,0,1,4,167.284v-6.318a2.808,2.808,0,0,1,2.812-2.809l1.9,0h8.149a2.808,2.808,0,0,1,2.809,2.808" transform="translate(-3.537 -139.765)" fill="#f9d335"/>
    <path id="Path_2726" data-name="Path 2726" d="M5.882,167.284v-6.318A2.808,2.808,0,0,1,8.6,158.159l-1.785,0A2.809,2.809,0,0,0,4,160.965v6.318a1.125,1.125,0,0,0,1.124,1.125H7.006a1.125,1.125,0,0,1-1.124-1.125" transform="translate(-3.536 -139.765)" fill="#f9e27d"/>
    <path id="Path_2727" data-name="Path 2727" d="M100.316,158.178H98.435a2.808,2.808,0,0,1,2.809,2.808v6.367a1.125,1.125,0,0,1-.993,1.117l1.75.008a1.125,1.125,0,0,0,1.125-1.125v-6.367a2.809,2.809,0,0,0-2.809-2.808" transform="translate(-86.988 -139.784)" fill="#f2c300"/>
    <path id="Path_2728" data-name="Path 2728" d="M58.447,158.159h-2c.033,0,.064,0,.1,0l1.9,0" transform="translate(-49.885 -139.765)" fill="#ffcaa6"/>
    <path id="Path_2729" data-name="Path 2729" d="M57.447,122.8v4.289a1.621,1.621,0,0,0,3.242-.038V122.8Z" transform="translate(-50.767 -108.521)" fill="#ffbb98"/>
    <path id="Path_2730" data-name="Path 2730" d="M33.209,59.464h0a5.039,5.039,0,0,1-5.024-5.024V50.392a1.122,1.122,0,0,1,1.122-1.122h2.507a1.079,1.079,0,0,1,.855.42c.3.388.534.793,1.142.793h3.3a1.122,1.122,0,0,1,1.122,1.122v2.835a5.038,5.038,0,0,1-5.024,5.024" transform="translate(-24.907 -43.541)" fill="#ffbb98"/>
    <path id="Path_2731" data-name="Path 2731" d="M70.014,60.829v2.834a5.038,5.038,0,0,1-5.024,5.024,4.967,4.967,0,0,1-.842-.072,5.041,5.041,0,0,0,4.182-4.952V60.786a1.079,1.079,0,0,0-1.08-1.079h1.641a1.122,1.122,0,0,1,1.122,1.122" transform="translate(-56.688 -52.764)" fill="#ffaa80"/>
    <path id="Path_2732" data-name="Path 2732" d="M34.051,59.395a4.968,4.968,0,0,1-.842.072,5.038,5.038,0,0,1-5.024-5.023V50.4a1.122,1.122,0,0,1,1.122-1.122h1.641a1.079,1.079,0,0,0-1.08,1.079v4.092a5.041,5.041,0,0,0,4.182,4.951" transform="translate(-24.907 -43.543)" fill="#ffcaa6"/>
    <path id="Path_2733" data-name="Path 2733" d="M130,95.556c-.015-.015-.031-.029-.047-.043a.693.693,0,0,0-.992.14l-.869,1.175a3.21,3.21,0,0,0-3.128-2.511L122.546,90.4l.591-.57,1.038-3.355,1.565-5.058L121.376,88.5l-4.363-7.084,2.6,8.413.591.57-2.415,3.921h0a3.207,3.207,0,1,0,1.639.452h0l1.946-3.19,1.946,3.19a3.2,3.2,0,0,0,3.1,5.6h0c1.794-.813,3.158-2.989,3.7-3.963a.717.717,0,0,0-.119-.855m-12.206,3.592a1.627,1.627,0,1,1,1.627-1.627,1.627,1.627,0,0,1-1.627,1.627m7.169,0a1.627,1.627,0,1,1,1.627-1.627,1.627,1.627,0,0,1-1.627,1.627" transform="translate(-101.262 -71.945)" fill="#87828e"/>
    <path id="Path_2734" data-name="Path 2734" d="M118.975,94.318l2.049-3.326a.867.867,0,0,0-.136-1.079l-.089-.086-1.409-4.554-2.377-3.859,2.6,8.414.591.57-2.415,3.921a3.2,3.2,0,1,0,0,6.409,3.252,3.252,0,0,0,.592-.054,3.2,3.2,0,0,1,.592-6.354" transform="translate(-101.262 -71.946)" fill="#a4a4a5"/>
    <path id="Path_2735" data-name="Path 2735" d="M176.453,94.318,174.038,90.4l.591-.57,1.038-3.355,1.564-5.058-2.377,3.858-.371,1.2-1.038,3.355-.591.57,2.415,3.921a3.211,3.211,0,0,1,3.129,2.511l.757-1.025a3.2,3.2,0,0,0-2.7-1.486m5.036,1.239c-.015-.015-.031-.029-.047-.043a.693.693,0,0,0-.992.14l-.034.046a.717.717,0,0,1,.009.712c-.54.974-1.9,3.15-3.7,3.963h0a3.163,3.163,0,0,1-.866.3,3.2,3.2,0,0,0,2.05-.3h0c1.794-.813,3.158-2.989,3.7-3.963a.717.717,0,0,0-.119-.855" transform="translate(-152.754 -71.946)" fill="#796e84"/>
    <path id="Path_2736" data-name="Path 2736" d="M44.282,76.829a.465.465,0,1,0-.93,0,.452.452,0,0,1-.9,0,.465.465,0,1,0-.93,0,1.382,1.382,0,0,0,2.765,0" transform="translate(-36.689 -67.484)" fill="#5f266d"/>
    <path id="Path_2737" data-name="Path 2737" d="M79.78,76.364a.465.465,0,0,0-.465.465.452.452,0,0,1-.9,0,.465.465,0,1,0-.93,0,1.382,1.382,0,0,0,2.765,0,.465.465,0,0,0-.465-.465" transform="translate(-68.47 -67.484)" fill="#5f266d"/>
    <path id="Path_2738" data-name="Path 2738" d="M58.652,99.31a.465.465,0,0,0-.465.465.925.925,0,0,1-1.849,0,.465.465,0,0,0-.465-.465c-1.1,0-.173,2.783,1.855,2.261,1.417-.366,1.8-2.261.924-2.261" transform="translate(-48.961 -87.762)" fill="#5f266d"/>
    <path id="Path_2739" data-name="Path 2739" d="M71.625,21.31h.233a.465.465,0,0,0,0-.93h-.233a.465.465,0,1,0,0,.93" transform="translate(-62.885 -18.01)" fill="#5f266d"/>
    <path id="Path_2740" data-name="Path 2740" d="M88.625,21.31h1.744a.465.465,0,1,0,0-.93H88.625a.465.465,0,0,0,0,.93" transform="translate(-77.908 -18.01)" fill="#5f266d"/>
    <path id="Path_2741" data-name="Path 2741" d="M168.861,153.482a.378.378,0,1,0-.378-.378.378.378,0,0,0,.378.378" transform="translate(-148.891 -134.966)" fill="#5f266d"/>
    <path id="Path_2742" data-name="Path 2742" d="M125.439,202.12a2.091,2.091,0,1,0,2.949,1.907,2.094,2.094,0,0,0-2.949-1.907m0,1.126v1.563a1.158,1.158,0,0,1,0-1.563m.93,1.941v-2.319a1.162,1.162,0,0,1,0,2.319" transform="translate(-109.767 -178.451)" fill="#5f266d"/>
    <path id="Path_2743" data-name="Path 2743" d="M187.9,201.95a2.092,2.092,0,1,0,2.092,2.092,2.094,2.094,0,0,0-2.092-2.092m0,3.254a1.162,1.162,0,1,1,1.162-1.162A1.163,1.163,0,0,1,187.9,205.2" transform="translate(-164.203 -178.466)" fill="#5f266d"/>
    <path id="Path_2744" data-name="Path 2744" d="M27.321,23.432l-.355.48a3.7,3.7,0,0,0-3-2l-2.088-3.391.322-.31a.466.466,0,0,0,.121-.2l2.6-8.414a.465.465,0,0,0-.84-.381l-3.967,6.441L16.147,9.223a.462.462,0,0,0-.16-.155V3.7a3.707,3.707,0,0,0-3.7-3.7H5.451A2.628,2.628,0,0,0,2.846,2.314,1.937,1.937,0,0,0,.615,4.225V16.5A2.2,2.2,0,0,0,1.583,18.4a3.307,3.307,0,0,0-.621.486A3.254,3.254,0,0,0,0,21.2v6.319a1.591,1.591,0,0,0,1.587,1.59c13.746.052,13.422.117,13.872-.014a.02.02,0,0,0,.012,0h0a3.673,3.673,0,0,0,4.64-2.729A3.677,3.677,0,0,0,23.7,29.246a3.619,3.619,0,0,0,1.644-.391h0c1.865-.847,3.253-2.971,3.913-4.162a1.182,1.182,0,0,0,.148-.572,1.153,1.153,0,0,0-2.087-.688m-4.373-10.6-1.483,4.793-.089.086-.717-1.163ZM20.891,18.7h0l2.027,3.291a3.679,3.679,0,0,0-.685.222h0c-2.2-3.6-1.491-2.672-2.949-4.08h0l0,0-.519-.5L17.28,12.837Zm-1.853.489.506.488L18,22.213a3.607,3.607,0,0,0-.686-.222l1.727-2.8Zm1.077,1.339,1.32,2.164h0a3.672,3.672,0,0,0-1.32,2.1,3.678,3.678,0,0,0-1.319-2.1Zm-2.205-2.509a.465.465,0,0,0,.121.2l.321.31h0L16.6,21.366a3.283,3.283,0,0,0-3.275-3.437h-2.94V15.978a5.576,5.576,0,0,0,2.909-2.8h1.062a1.63,1.63,0,0,0,1.614-1.414ZM9.065,19.392a1.138,1.138,0,0,1-1.882-.534h0a14.652,14.652,0,0,1-.037-2.591,5.494,5.494,0,0,0,2.312,0c0,2.456.112,2.638-.393,3.126m3.594-7.149c-1.575,5.05-8.916,3.78-8.916-1.343V6.852A.657.657,0,0,1,4.4,6.195H6.907a.618.618,0,0,1,.486.24l.086.113A1.7,1.7,0,0,0,8.9,7.407h3.3a.659.659,0,0,1,.657.658c0,2.984.059,3.333-.2,4.177M1.545,16.5V4.225a1.006,1.006,0,0,1,1-1c.5,0,.607.355.977.145.28-.159.235-.424.235-.743A1.7,1.7,0,0,1,5.451.93h6.834A2.775,2.775,0,0,1,15.057,3.7v7.841a.7.7,0,0,1-.7.7h-.734A5.5,5.5,0,0,0,13.79,10.9V8.066A1.59,1.59,0,0,0,12.2,6.477H8.9c-.3,0-.426-.15-.68-.488l-.093-.123a1.554,1.554,0,0,0-1.223-.6H4.4A1.589,1.589,0,0,0,2.813,6.852V10.9a5.5,5.5,0,0,0,3.4,5.077v1.95H3.272c-.983,0-1.727-.438-1.727-1.423M1.59,28.178a.66.66,0,0,1-.659-.659V21.2a2.328,2.328,0,0,1,.688-1.659c.849-.849,1.481-.684,4.617-.684A2.061,2.061,0,0,0,6.8,20.008a2.1,2.1,0,0,0,3.563-1.15h2.965A2.346,2.346,0,0,1,15.672,21.2v.808a3.67,3.67,0,0,0-1.678,6.217Zm14.94.137a2.739,2.739,0,1,1,2.739-2.74,2.743,2.743,0,0,1-2.739,2.74m11.917-4.075c-.965,1.738-2.751,4.075-4.748,4.075a2.739,2.739,0,1,1,2.673-3.333.466.466,0,0,0,.829.177l.869-1.174a.228.228,0,0,1,.377.256" fill="#5f266d"/>
  </g>
</svg>
